<?xml version="1.0" encoding="utf-8"?>
<!-- Generator: Adobe Illustrator 16.0.0, SVG Export Plug-In . SVG Version: 6.00 Build 0)  -->
<!DOCTYPE svg PUBLIC "-//W3C//DTD SVG 1.1//EN" "http://www.w3.org/Graphics/SVG/1.1/DTD/svg11.dtd">
<svg version="1.1" id="Layer_1" xmlns="http://www.w3.org/2000/svg" xmlns:xlink="http://www.w3.org/1999/xlink" x="0px" y="0px"
	 width="1584px" height="567.641px" viewBox="0 0 1584 567.641" enable-background="new 0 0 1584 567.641" xml:space="preserve">
<polygon fill="#0033A0" points="887.688,314.939 964.513,239.866 888.853,239.866 888.853,204.52 1018.263,204.52 1018.263,240.449 
	941.432,315.23 1019.719,315.23 1019.719,350.577 887.688,350.577 "/>
<rect x="833.109" y="156.471" fill="#0033A0" width="40.021" height="36.335"/>
<rect x="832.573" y="204.958" fill="#0033A0" width="40.022" height="146.056"/>
<g>
	<defs>
		<rect id="SVGID_1_" width="1584" height="567.641"/>
	</defs>
	<clipPath id="SVGID_2_">
		<use xlink:href="#SVGID_1_"  overflow="visible"/>
	</clipPath>
	<path clip-path="url(#SVGID_2_)" fill="#0033A0" d="M348.527,277.548c0-42.067,33.592-75.952,75.659-75.952
		c42.061,0,75.654,33.885,75.654,75.952c0,42.062-33.593,75.953-75.654,75.953C382.119,353.5,348.527,319.61,348.527,277.548
		 M460.988,277.548c0-20.74-16.354-37.973-36.802-37.973c-20.739,0-36.516,17.233-36.516,37.973
		c0,20.739,15.777,37.973,36.516,37.973C444.634,315.521,460.988,298.287,460.988,277.548"/>
	<path clip-path="url(#SVGID_2_)" fill="#0033A0" d="M680.454,204.52h39.731v16.36c9.348-11.98,23.658-19.284,40.309-19.284
		c34.472,0,55.211,22.202,55.211,59.883v89.098H775.1v-83.838c0-19.569-9.056-30.961-26.872-30.961
		c-15.189,0-27.752,10.513-27.752,35.049v79.75h-40.022V204.52z"/>
	<path clip-path="url(#SVGID_2_)" fill="#0033A0" d="M1022.018,277.548c0-51.707,37.973-75.953,70.984-75.953
		c18.985,0,33.883,7.013,43.521,17.24V204.52h40.023v146.057h-40.023v-16.361c-9.639,11.393-25.119,19.285-44.104,19.285
		C1061.453,353.5,1022.018,328.958,1022.018,277.548 M1137.694,277.256c0-21.619-15.771-39.144-37.391-39.144
		c-22.201,0-39.142,16.652-39.142,39.144c0,22.493,16.94,39.436,39.142,39.436C1121.924,316.692,1137.694,298.87,1137.694,277.256"
		/>
	<path clip-path="url(#SVGID_2_)" fill="#0033A0" d="M1192.696,204.52h39.731v16.36c9.348-11.98,23.658-19.284,40.309-19.284
		c34.473,0,55.211,22.202,55.211,59.883v89.098h-40.604v-83.838c0-19.569-9.056-30.961-26.872-30.961
		c-15.189,0-27.752,10.513-27.752,35.049v79.75h-40.022V204.52z"/>
	<polyline clip-path="url(#SVGID_2_)" fill="#0033A0" points="887.688,350.577 887.688,314.938 964.513,239.866 888.853,239.866 
		888.853,204.52 1018.263,204.52 1018.263,240.448 941.432,315.229 	"/>
	<path clip-path="url(#SVGID_2_)" fill="#0033A0" d="M305.841,276.279l-0.549,1.157c-11.051,23.294-31.373,36.654-55.753,36.654
		c-35.352,0-63.045-27.937-63.045-63.6c0-36.568,27.459-64.146,63.872-64.146c23.603,0,41.538,11.059,53.307,32.867l0.627,1.163
		l35.62-22.772l-0.599-1.02c-18.502-31.512-51.758-50.327-88.955-50.327c-59.424,0-104.235,44.812-104.235,104.235
		c0,60.399,43.837,104.236,104.235,104.236c38.929,0,73.324-21.608,92.005-57.801l0.558-1.081L305.841,276.279z"/>
	<path clip-path="url(#SVGID_2_)" fill="#0033A0" d="M509.927,277.548c0-51.707,37.973-75.953,70.984-75.953
		c18.986,0,33.883,7.892,43.522,18.696V204.52h40.023v141.968c0,41.188-25.998,74.489-75.369,74.489
		c-37.093,0-64.262-19.283-75.944-42.066l35.345-19.861c7.595,15.19,21.031,24.829,40.599,24.829
		c21.619,0,35.346-16.943,35.346-35.929v-13.734c-9.639,11.393-25.119,19.285-44.104,19.285
		C549.362,353.5,509.927,328.958,509.927,277.548 M625.604,277.256c0-21.619-15.771-39.144-37.39-39.144
		c-22.201,0-39.143,16.652-39.143,39.144c0,22.493,16.942,39.436,39.143,39.436C609.833,316.692,625.604,298.87,625.604,277.256"/>
	<path clip-path="url(#SVGID_2_)" fill="#0033A0" d="M1426.507,240.45V204.52h-27.454v-48.184h-40.022v48.184h-24.826v35.931h24.826
		v46.735c0,47.621,15.192,63.392,61.638,63.392h5.839v-37.391c-24.532,0-27.454-3.507-27.454-26.289V240.45H1426.507z"/>
	<path clip-path="url(#SVGID_2_)" fill="#0033A0" d="M1434.951,173.772c-1.995,2.004-4.407,3.005-7.236,3.005
		c-2.831,0-5.238-1.001-7.223-3.005c-1.977-1.995-2.965-4.412-2.965-7.251c0-2.811,0.997-5.213,2.992-7.208
		c1.986-1.985,4.383-2.978,7.195-2.978c2.829,0,5.241,0.993,7.236,2.978c1.993,1.986,2.99,4.388,2.99,7.208
		C1437.941,169.352,1436.944,171.769,1434.951,173.772 M1421.508,160.315c-1.707,1.716-2.561,3.79-2.561,6.22
		c0,2.45,0.85,4.537,2.547,6.263c1.707,1.725,3.779,2.587,6.221,2.587c2.438,0,4.512-0.862,6.219-2.587
		c1.707-1.726,2.561-3.813,2.561-6.263c0-2.43-0.854-4.504-2.561-6.22c-1.716-1.725-3.789-2.588-6.219-2.588
		C1425.293,157.728,1423.224,158.59,1421.508,160.315 M1427.519,160.885c1.392,0,2.412,0.136,3.062,0.405
		c1.159,0.483,1.738,1.429,1.738,2.842c0,1.002-0.363,1.741-1.094,2.214c-0.387,0.25-0.928,0.432-1.621,0.543
		c0.877,0.139,1.52,0.505,1.925,1.098c0.406,0.594,0.609,1.172,0.609,1.738v0.82c0,0.259,0.01,0.537,0.029,0.834
		c0.018,0.296,0.05,0.491,0.096,0.584l0.071,0.139h-1.852c-0.01-0.037-0.019-0.074-0.027-0.112c-0.01-0.036-0.02-0.078-0.028-0.124
		l-0.042-0.361v-0.888c0-1.294-0.353-2.15-1.058-2.566c-0.418-0.24-1.15-0.361-2.198-0.361h-1.56v4.412h-1.976v-11.217H1427.519z
		 M1429.652,162.653c-0.497-0.278-1.295-0.417-2.393-0.417h-1.689v4.063h1.787c0.837,0,1.465-0.084,1.885-0.25
		c0.771-0.307,1.157-0.892,1.157-1.754C1430.399,163.479,1430.15,162.932,1429.652,162.653"/>
</g>
</svg>
